<?xml version="1.0" encoding="utf-8"?>
<!-- Generator: Adobe Illustrator 18.0.0, SVG Export Plug-In . SVG Version: 6.00 Build 0)  -->
<!DOCTYPE svg PUBLIC "-//W3C//DTD SVG 1.1//EN" "http://www.w3.org/Graphics/SVG/1.1/DTD/svg11.dtd">
<svg version="1.1" id="Layer_1" xmlns="http://www.w3.org/2000/svg" xmlns:xlink="http://www.w3.org/1999/xlink" x="0px" y="0px"
	 viewBox="-396.7 -265 566.9 566.9" enable-background="new -396.7 -265 566.9 566.9" xml:space="preserve">
<g>
	<path fill="#BABABA" d="M-300.7-85.9V35.9h-1.1c-15.4,0-20.1,9.8-10.4,21.8l26.9,33.3c2.5,3.2,5.5,5.4,8.7,6.9v5.7
		c-11.3,5.3-19.2,16.8-19.2,30.1c0,18.5,15,33.4,33.4,33.4c17,0,30.9-12.6,33.1-29l0.1-19.7h-5l-11.2,11.2c0,0.4,0,3.4,0,3.8
		c0,8.1-6.6,14.7-14.7,14.7c-8.1,0-14.7-6.6-14.7-14.7c0-7.6,5.8-13.8,13.2-14.5h5.7V96.2c2.1-1.4,4-3,5.8-5.2l26.9-33.3
		c9.6-12,4.9-21.8-10.4-21.8h-1.1V-85.9h181.3v330.6h-205v32.8h369.1v-32.8h-79V-85.9h119v-65.3h-20.6L13.7-240.7l-0.2,0.3h-49.3
		l-0.1-0.3L-248-151.3h-93.2l-35.7,65.3C-376.8-85.9-300.7-85.9-300.7-85.9z M17.9-212.6l79.7,61.3H27.3L17.9-212.6z M-24,194.3H1.7
		v25.7H-24V194.3z M-24,139.5H1.7v25.7H-24V139.5z M-24,84.6H1.7v25.7H-24V84.6z M-24,29.8H1.7v25.7H-24V29.8z M-24-25.1H1.7V0.6
		H-24V-25.1z M-24-80H1.7v25.8H-24V-80z M-197.3-151.3l158-66.6l-10.2,66.6H-197.3z M-281-85.9h26.4V35.9H-281V-85.9z"/>
</g>
</svg>
